<svg width="40" height="40" viewBox="0 0 40 40" fill="none" xmlns="http://www.w3.org/2000/svg">
<path d="M20 37.9167C18.8333 37.9167 17.65 37.4667 16.7667 36.5833L13.9167 33.7668C13.2 33.0668 12.2667 32.6834 11.2667 32.6834H10C6.55 32.6834 3.75 29.9001 3.75 26.4834V8.30005C3.75 4.88338 6.55 2.1001 10 2.1001H30C33.45 2.1001 36.25 4.88338 36.25 8.30005V26.4834C36.25 29.9001 33.45 32.6834 30 32.6834H28.7333C27.7333 32.6834 26.7833 33.0668 26.0833 33.7668L23.2333 36.5833C22.35 37.4667 21.1667 37.9167 20 37.9167ZM10 4.58341C7.93333 4.58341 6.25 6.25003 6.25 8.28337V26.4668C6.25 28.5168 7.93333 30.1667 10 30.1667H11.2667C12.9333 30.1667 14.5 30.8167 15.6833 31.9833L18.5333 34.8001C19.35 35.6001 20.6667 35.6001 21.4833 34.8001L24.3333 31.9833C25.5167 30.8167 27.0833 30.1667 28.75 30.1667H30C32.0667 30.1667 33.75 28.5001 33.75 26.4668V8.28337C33.75 6.23337 32.0667 4.58341 30 4.58341H10Z" fill="#3A78F2"/>
<path d="M17.3004 24.1834H12.8337C12.1004 24.1834 11.417 23.8333 10.9837 23.2333C10.567 22.6667 10.467 21.9668 10.667 21.3001C11.2504 19.5168 12.6837 18.5501 13.9504 17.6834C15.2837 16.7834 16.0337 16.2168 16.0337 15.2501C16.0337 14.3835 15.3337 13.6833 14.467 13.6833C13.6004 13.6833 12.9004 14.3835 12.9004 15.2501C12.9004 15.9335 12.3337 16.5001 11.6504 16.5001C10.9671 16.5001 10.4004 15.9335 10.4004 15.2501C10.4004 13.0168 12.217 11.1833 14.467 11.1833C16.717 11.1833 18.5337 13.0001 18.5337 15.2501C18.5337 17.6001 16.7671 18.8001 15.3504 19.7667C14.4671 20.3667 13.6337 20.9334 13.217 21.6834H17.2837C17.967 21.6834 18.5337 22.2501 18.5337 22.9334C18.5337 23.6168 17.9837 24.1834 17.3004 24.1834Z" fill="#3A78F2"/>
<path d="M26.7331 24.1834C26.0498 24.1834 25.4831 23.6167 25.4831 22.9334V21.7833H22.2165C22.2165 21.7833 22.2165 21.7833 22.1998 21.7833C21.3831 21.7833 20.6331 21.3501 20.2165 20.6501C19.7998 19.9334 19.7998 19.0501 20.2165 18.3501C21.3498 16.4001 22.6665 14.1833 23.8665 12.25C24.3998 11.4 25.4165 11.0168 26.3665 11.2834C27.3165 11.5668 27.9831 12.4335 27.9665 13.4335V19.3H28.3331C29.0165 19.3 29.5831 19.8666 29.5831 20.55C29.5831 21.2333 29.0165 21.8 28.3331 21.8H27.9831V22.9501C27.9831 23.6334 27.4331 24.1834 26.7331 24.1834ZM25.4831 14.4001C24.4998 16.0001 23.4831 17.7166 22.5665 19.2833H25.4831V14.4001Z" fill="#3A78F2"/>
</svg>
