<svg width="163" height="48" viewBox="0 0 163 48" fill="none" xmlns="http://www.w3.org/2000/svg">
<path d="M9.97846 32.0001C9.12186 31.1397 8.44421 30.1196 7.98433 28.9981C7.52445 27.8767 7.29137 26.6759 7.29844 25.4647C7.29532 24.2535 7.53486 23.0538 8.00303 21.9358C8.4712 20.8178 9.15862 19.8039 10.0251 18.9535C10.3962 18.6251 10.6962 18.2248 10.9065 17.777C11.1168 17.3293 11.2331 16.8435 11.2482 16.3495C11.2633 15.8555 11.177 15.3636 10.9945 14.9039C10.8119 14.4443 10.5371 14.0265 10.1867 13.6763C9.83631 13.326 9.4178 13.0506 8.95676 12.867C8.49573 12.6833 8.00188 12.5953 7.50547 12.6082C7.00905 12.6211 6.5205 12.7347 6.06974 12.9421C5.61898 13.1495 5.2155 13.4463 4.88399 13.8143C1.77015 16.8952 0.0133822 21.081 7.61375e-05 25.4511C-0.01323 29.8211 1.71802 34.0175 4.81303 37.1171C5.14346 37.4846 5.54562 37.7813 5.995 37.989C6.44438 38.1968 6.93155 38.3112 7.42683 38.3255C7.92211 38.3397 8.41511 38.2534 8.87578 38.0718C9.33646 37.8902 9.75515 37.6172 10.1063 37.2693C10.4575 36.9214 10.7338 36.5059 10.9185 36.0483C11.1031 35.5906 11.1921 35.1004 11.1801 34.6074C11.1682 34.1143 11.0555 33.6289 10.8489 33.1807C10.6423 32.7324 10.3461 32.3308 9.97846 32.0001Z" fill="#FFDA00"/>
<path d="M10.0253 18.9532C11.7715 17.2326 14.1319 16.2713 16.589 16.28C19.0461 16.2887 21.3996 17.2667 23.1334 18.9996C23.4627 19.3709 23.8648 19.6714 24.315 19.8823C24.7652 20.0933 25.2541 20.2104 25.7514 20.2264C26.2488 20.2425 26.7442 20.1571 27.2072 19.9755C27.6701 19.7939 28.0909 19.52 28.4436 19.1706C28.7963 18.8212 29.0735 18.4037 29.2581 17.9438C29.4427 17.4838 29.5308 16.9912 29.5171 16.4961C29.5034 16.001 29.388 15.5139 29.1782 15.0648C28.9683 14.6157 28.6684 14.2141 28.2968 13.8846C26.77 12.3453 24.9527 11.1214 22.9492 10.2832C20.9458 9.44499 18.7957 9.00895 16.6225 9.00014C14.4492 8.99132 12.2957 9.40991 10.2854 10.2319C8.27518 11.0538 6.44789 12.2629 4.9085 13.7898C4.53599 14.1165 4.23438 14.5154 4.02212 14.9621C3.80987 15.4088 3.69142 15.8939 3.67405 16.3877C3.65667 16.8816 3.74073 17.3737 3.92107 17.8341C4.10142 18.2945 4.37426 18.7134 4.72289 19.0653C5.07152 19.4171 5.48862 19.6944 5.94865 19.8802C6.40868 20.066 6.90197 20.1564 7.39833 20.1459C7.89469 20.1355 8.38368 20.0243 8.83537 19.8192C9.28706 19.6141 9.69195 19.3194 10.0253 18.9532Z" fill="#67B3FF"/>
<path d="M23.1106 32.0462C22.2465 32.9005 21.2215 33.5768 20.0945 34.0362C18.9674 34.4957 17.7603 34.7293 16.5423 34.7238C15.3247 34.7256 14.1189 34.4856 12.9956 34.0178C11.8723 33.5501 10.8541 32.8641 10.0004 31.9998C9.67052 31.6304 9.26832 31.3319 8.81847 31.1226C8.36862 30.9132 7.88057 30.7975 7.38421 30.7824C6.88785 30.7674 6.39363 30.8533 5.9318 31.035C5.46998 31.2167 5.05026 31.4902 4.69836 31.839C4.34646 32.1877 4.06978 32.6043 3.88526 33.0631C3.70074 33.522 3.61226 34.0135 3.62524 34.5076C3.63822 35.0017 3.75239 35.488 3.96075 35.9366C4.16912 36.3853 4.46729 36.7869 4.83702 37.1168C6.3665 38.656 8.18612 39.8796 10.1916 40.7175C12.1971 41.5554 14.349 41.9912 16.524 41.9998C18.699 42.0084 20.8543 41.5898 22.8665 40.7678C24.8786 39.9458 26.708 38.7366 28.2497 37.2096C28.5903 36.8738 28.8612 36.4744 29.0467 36.0344C29.2323 35.5944 29.329 35.1223 29.3312 34.6451C29.3335 34.1678 29.2413 33.6948 29.0599 33.2531C28.8785 32.8113 28.6115 32.4095 28.274 32.0705C27.9366 31.7314 27.5354 31.4619 27.0933 31.2772C26.6512 31.0925 26.1768 30.9962 25.6974 30.994C25.2179 30.9917 24.7427 31.0835 24.2989 31.2641C23.855 31.4446 23.4513 31.7104 23.1106 32.0462Z" fill="#EB5A68"/>
<path d="M10.0252 18.9531C9.5137 19.4615 8.86204 19.8073 8.15284 19.9466C7.44364 20.0859 6.70885 20.0124 6.04168 19.7354C5.37451 19.4585 4.80503 18.9905 4.40546 18.3909C4.0059 17.7913 3.79426 17.0871 3.7974 16.3676C3.80053 15.6482 4.0183 14.9458 4.42307 14.3497C4.82785 13.7536 5.40139 13.2906 6.07095 13.0194C6.74051 12.7482 7.47591 12.681 8.18387 12.8264C8.89183 12.9718 9.54045 13.3232 10.0475 13.8361C10.7229 14.5193 11.0996 15.4406 11.0954 16.3991C11.0912 17.3577 10.7065 18.2757 10.0252 18.9531Z" fill="#47A1FF"/>
<path d="M9.9543 37.1167C9.44265 37.6249 8.79085 37.9705 8.0816 38.1095C7.37234 38.2485 6.63758 38.1747 5.97052 37.8975C5.30347 37.6202 4.73417 37.152 4.33484 36.5523C3.93552 35.9526 3.72416 35.2483 3.72758 34.5288C3.731 33.8093 3.94904 33.1071 4.35405 32.5111C4.75906 31.9152 5.33279 31.4524 6.00245 31.1814C6.67212 30.9105 7.40754 30.8436 8.11545 30.9893C8.82335 31.135 9.47183 31.4866 9.97863 31.9997C10.6538 32.6832 11.0301 33.6047 11.0256 34.5632C11.021 35.5217 10.636 36.4396 9.9543 37.1167Z" fill="#D5465F"/>
<path d="M44.5343 29.0241C45.5865 28.2331 45.7264 28.675 46.6143 29.5588C47.0583 30.0007 48.2726 30.7694 47.4779 31.4192C45.8196 32.767 44.3235 33.3723 42.2071 33.3723C37.4167 33.3501 34.0291 29.7908 34.3008 25.0693C34.4163 22.9547 35.2577 20.9531 36.918 19.5811C38.4364 18.3018 40.3278 17.7449 42.3145 17.7914C43.2882 17.7885 44.2529 17.9778 45.1526 18.3483C45.7621 18.5673 46.3364 18.8731 46.8576 19.2562C47.9097 20.0633 47.4191 20.5355 46.6001 21.3486C46.4136 21.5343 46.2271 21.7219 46.0629 21.9075C45.6432 22.3252 45.3615 22.6279 44.8019 22.2324C43.7275 21.4878 42.3692 21.0924 41.086 21.4253C36.9504 22.4705 37.1369 29.7969 42.2091 29.8211C43.0499 29.8101 43.865 29.5307 44.5343 29.0241ZM159.493 33.4631C159.328 33.4639 159.163 33.432 159.01 33.3693C158.856 33.3065 158.717 33.2141 158.599 33.0974C158.482 32.9808 158.389 32.8421 158.326 32.6895C158.262 32.5368 158.23 32.3732 158.23 32.2081L158.301 15.9754C158.301 15.8103 158.333 15.6466 158.396 15.4939C158.459 15.3411 158.552 15.2023 158.669 15.0855C158.786 14.9686 158.925 14.876 159.079 14.813C159.232 14.75 159.396 14.7178 159.562 14.7183H160.919C161.085 14.7178 161.249 14.75 161.403 14.8132C161.556 14.8763 161.696 14.9691 161.813 15.0862C161.93 15.2032 162.023 15.3423 162.086 15.4953C162.149 15.6482 162.181 15.8121 162.18 15.9774L162.109 32.2101C162.109 32.3751 162.077 32.5387 162.014 32.6913C161.951 32.844 161.858 32.9826 161.741 33.0993C161.624 33.216 161.484 33.3085 161.331 33.3712C161.178 33.434 161.013 33.4659 160.848 33.4651L159.493 33.4631ZM152.398 31.5806C150.926 32.9526 149.523 33.673 147.443 33.673C143.239 33.6488 141.228 30.1843 141.228 26.3002L141.252 19.6961C141.252 19.5311 141.284 19.3676 141.347 19.215C141.411 19.0625 141.504 18.924 141.621 18.8075C141.739 18.6909 141.878 18.5988 142.032 18.5362C142.185 18.4737 142.349 18.442 142.515 18.4431H143.871C144.037 18.4423 144.202 18.4742 144.355 18.537C144.508 18.5998 144.648 18.6922 144.765 18.8089C144.882 18.9256 144.975 19.0643 145.038 19.2169C145.101 19.3695 145.133 19.5331 145.132 19.6981L145.11 26.3022C145.11 28.4652 146.278 30.1621 148.569 30.1621C150.859 30.1621 152.26 28.2553 152.283 26.1266V23.7679C152.264 23.6763 152.257 23.5828 152.26 23.4894L152.283 19.7445C152.282 19.5795 152.314 19.4159 152.377 19.2633C152.44 19.1107 152.533 18.972 152.65 18.8553C152.767 18.7386 152.907 18.6462 153.06 18.5834C153.213 18.5206 153.378 18.4887 153.543 18.4895H154.881C155.047 18.4887 155.212 18.5206 155.365 18.5834C155.518 18.6462 155.658 18.7386 155.775 18.8553C155.892 18.972 155.985 19.1107 156.048 19.2633C156.111 19.4159 156.143 19.5795 156.142 19.7445L156.098 32.2101C156.095 32.5399 155.96 32.855 155.724 33.0862C155.487 33.3173 155.168 33.4456 154.837 33.4429H153.691C153.366 33.4328 153.057 33.2997 152.827 33.0707C152.597 32.8416 152.463 32.5339 152.453 32.2101L152.398 31.5806ZM136.267 18.4895H138.884C139.05 18.4918 139.214 18.5269 139.366 18.5926C139.519 18.6583 139.656 18.7533 139.772 18.8723C139.887 18.9912 139.977 19.1316 140.037 19.2855C140.098 19.4394 140.127 19.6036 140.123 19.7687V20.6283C140.12 20.9596 139.987 21.2767 139.752 21.5114C139.517 21.7461 139.199 21.8796 138.866 21.8833H136.243L136.196 32.1395C136.197 32.3046 136.165 32.4683 136.102 32.621C136.039 32.7738 135.946 32.9126 135.829 33.0294C135.712 33.1463 135.572 33.2389 135.419 33.3019C135.266 33.3649 135.101 33.3971 134.935 33.3965H133.581C133.415 33.3971 133.251 33.3649 133.097 33.3019C132.944 33.239 132.804 33.1464 132.687 33.0295C132.57 32.9127 132.477 32.7739 132.413 32.6212C132.35 32.4684 132.318 32.3047 132.318 32.1395L132.365 17.9548C132.365 14.8616 134.141 12.4181 137.319 12.1397C137.413 12.1397 137.482 12.1175 137.575 12.1175C137.762 12.1054 137.949 12.1054 138.136 12.1175H139.353C139.518 12.1198 139.682 12.1548 139.834 12.2204C139.986 12.2859 140.124 12.3808 140.239 12.4995C140.354 12.6183 140.445 12.7585 140.505 12.9121C140.566 13.0657 140.595 13.2297 140.591 13.3947V14.1857C140.589 14.518 140.456 14.8363 140.22 15.0715C139.984 15.3067 139.664 15.4401 139.33 15.4427H138.349C136.853 15.4427 136.223 16.5807 136.198 17.977L136.267 18.4895ZM126.875 18.4431H129.744C130.075 18.4463 130.392 18.5802 130.624 18.8155C130.856 19.0509 130.985 19.3683 130.982 19.6981V20.5577C130.979 20.8875 130.844 21.2026 130.608 21.4337C130.372 21.6649 130.053 21.7932 129.721 21.7905H126.851L126.828 28.0657C126.828 29.2763 127.412 29.9724 128.627 29.9724H129.21C129.542 29.9762 129.859 30.1106 130.091 30.3462C130.323 30.5818 130.452 30.8995 130.449 31.2295V32.1012C130.445 32.4308 130.311 32.7456 130.074 32.9766C129.838 33.2077 129.519 33.3361 129.188 33.334H128.089C127.886 33.338 127.683 33.3299 127.481 33.3098C124.373 33.108 122.995 31.1024 122.995 28.0778C123.019 24.008 123.019 19.9624 123.041 15.8927C123.043 15.7292 123.077 15.5676 123.141 15.4172C123.206 15.2667 123.299 15.1304 123.416 15.0159C123.534 14.9014 123.673 14.811 123.825 14.7499C123.977 14.6889 124.14 14.6582 124.304 14.6598H125.636C125.968 14.663 126.284 14.797 126.517 15.0323C126.749 15.2676 126.878 15.585 126.875 15.9149V18.4431ZM85.3165 18.2796H88.185C88.5164 18.2828 88.833 18.4168 89.0652 18.6521C89.2974 18.8874 89.4264 19.2048 89.4237 19.5347V20.3983C89.4199 20.7279 89.2852 21.0427 89.0489 21.2737C88.8126 21.5048 88.4939 21.6333 88.1627 21.6311H85.284V27.9083C85.284 29.1189 85.8679 29.8151 87.0822 29.8151H87.6681C87.8321 29.8166 87.9941 29.8504 88.145 29.9143C88.2959 29.9782 88.4327 30.0711 88.5475 30.1876C88.6624 30.3042 88.753 30.4421 88.8143 30.5935C88.8756 30.7449 88.9063 30.9069 88.9047 31.0701V31.9296C88.9015 32.2595 88.7669 32.5746 88.5305 32.8057C88.294 33.0368 87.9751 33.1652 87.6437 33.1625H86.7801C83.3906 33.1403 81.4282 31.6976 81.4282 27.9164C81.4525 23.8466 81.4525 19.799 81.4748 15.7292C81.4786 15.3992 81.6136 15.0841 81.8504 14.853C82.0871 14.622 82.4062 14.4937 82.7378 14.4964H84.0697C84.4011 14.5001 84.7175 14.6346 84.9493 14.8703C85.1812 15.106 85.3096 15.4236 85.3063 15.7534L85.3165 18.2796ZM68.4477 20.0472C69.8263 18.7679 71.3224 17.9548 73.2604 17.9548C77.467 17.977 79.6402 21.3849 79.6158 25.3256L79.5935 31.9296C79.5941 32.0949 79.5618 32.2586 79.4985 32.4113C79.4352 32.5641 79.3422 32.7029 79.2248 32.8197C79.1074 32.9365 78.968 33.0291 78.8145 33.0921C78.6611 33.1551 78.4966 33.1872 78.3306 33.1867H76.9764C76.8104 33.1872 76.6459 33.1551 76.4924 33.0921C76.3389 33.0291 76.1995 32.9365 76.0821 32.8197C75.9647 32.7029 75.8717 32.5641 75.8084 32.4113C75.7452 32.2586 75.7129 32.0949 75.7134 31.9296L75.7377 25.372C75.7377 23.209 74.57 21.5121 72.2792 21.5121C69.9885 21.5121 68.5876 23.3966 68.5653 25.5354L68.541 31.9296C68.5378 32.2595 68.4032 32.5746 68.1668 32.8057C67.9304 33.0368 67.6114 33.1652 67.28 33.1625H65.9481C65.6168 33.1593 65.3002 33.0253 65.068 32.79C64.8357 32.5547 64.7068 32.2373 64.7095 31.9074C64.7318 27.9305 64.7318 23.9313 64.7561 19.9544V19.4197C64.7572 19.0902 64.8895 18.7746 65.1239 18.542C65.3584 18.3094 65.6759 18.1788 66.0069 18.1788H67.1523C67.4778 18.1884 67.7872 18.3214 68.0175 18.5505C68.2477 18.7797 68.3813 19.0877 68.391 19.4116L68.4477 20.0472ZM110.085 20.2086C111.464 18.9314 112.958 18.1162 114.898 18.1162C119.105 18.1404 121.276 21.5585 121.253 25.489L121.229 32.1012C121.23 32.2663 121.198 32.4299 121.135 32.5827C121.072 32.7354 120.979 32.8742 120.862 32.9911C120.745 33.1079 120.605 33.2006 120.452 33.2636C120.298 33.3266 120.134 33.3587 119.968 33.3582H118.614C118.448 33.3587 118.284 33.3266 118.13 33.2636C117.977 33.2006 117.837 33.108 117.72 32.9912C117.602 32.8744 117.509 32.7356 117.446 32.5828C117.383 32.4301 117.35 32.2664 117.351 32.1012L117.375 25.5435C117.375 23.3805 116.206 21.6836 113.917 21.6836C111.628 21.6836 110.225 23.5661 110.201 25.7069L110.168 32.1012C110.165 32.4312 110.03 32.7462 109.793 32.9773C109.556 33.2084 109.237 33.3367 108.906 33.334H107.574C107.243 33.3303 106.927 33.1961 106.695 32.9608C106.463 32.7256 106.334 32.4084 106.337 32.079L106.384 19.5892C106.384 19.425 106.417 19.2625 106.481 19.1112C106.545 18.9598 106.638 18.8225 106.756 18.7072C106.873 18.5918 107.012 18.5007 107.165 18.4391C107.318 18.3775 107.482 18.3467 107.647 18.3483H108.792C109.119 18.359 109.429 18.4938 109.659 18.7249C109.889 18.956 110.021 19.266 110.029 19.5912L110.085 20.2086ZM55.7268 17.8378C51.1695 17.8136 47.9462 21.0924 47.9219 25.604C47.8996 30.1621 51.0763 33.3965 55.6801 33.4187C60.284 33.4409 63.5073 30.2327 63.5296 25.6444C63.554 21.163 60.2597 17.86 55.7268 17.8378ZM93.5552 27.1637C93.8816 29.2561 95.8926 30.1157 97.855 30.1399C98.8387 30.1313 99.8097 29.9176 100.705 29.5124C100.849 29.454 100.989 29.3866 101.125 29.3106C101.593 29.0544 102.013 28.8929 102.435 29.3106C102.668 29.5427 102.879 29.7767 103.112 29.9845C103.332 30.1937 103.535 30.4197 103.72 30.6605C104.35 31.4494 103.906 31.6371 103.183 32.1254C101.64 33.1484 99.6309 33.6588 97.784 33.6588C92.8315 33.6366 89.5595 30.6322 89.5595 25.6605C89.5838 20.9612 92.8538 17.8458 97.5732 17.868C102.388 17.8922 105.121 20.707 105.192 25.4971C105.214 26.7985 105.261 27.2182 103.906 27.2182L93.5552 27.1637ZM55.7268 21.3486C58.0865 21.3486 59.6515 23.3966 59.6515 25.6525C59.6515 28.0011 58.1797 29.8897 55.7024 29.8897C53.2251 29.8897 51.7777 27.9829 51.7777 25.6343C51.7777 23.2857 53.2738 21.3486 55.7268 21.3486ZM93.6586 23.9313L101.417 23.9535C101.135 22.0226 99.5234 21.2558 97.6786 21.2558C95.8338 21.2558 94.2323 22.1174 93.6586 23.9313Z" fill="#29303A"/>
</svg>
