<svg width="41" height="41" viewBox="0 0 41 41" fill="none" xmlns="http://www.w3.org/2000/svg">
<path d="M39.7898 10.0359C39.9951 9.83105 40.1579 9.58773 40.269 9.31987C40.3801 9.052 40.4373 8.76486 40.4373 8.47486C40.4373 8.18487 40.3801 7.89772 40.269 7.62986C40.1579 7.36199 39.9951 7.11867 39.7898 6.91383L33.5235 0.64754C33.3187 0.442272 33.0754 0.279421 32.8075 0.168307C32.5396 0.0571936 32.2525 0 31.9625 0C31.6725 0 31.3853 0.0571936 31.1175 0.168307C30.8496 0.279421 30.6063 0.442272 30.4014 0.64754L20.4595 10.5895L11.8462 1.97608C10.1191 0.248978 7.30698 0.248978 5.57987 1.97608L1.37283 6.18313C-0.354278 7.91023 -0.354278 10.7223 1.37283 12.4494L9.9862 21.0628L0 31.049V40.4374H9.38836L19.3967 30.429L28.0101 39.0424C30.1136 41.1459 32.9478 40.3709 34.2764 39.0424L38.4834 34.8353C40.2105 33.1082 40.2105 30.2962 38.4834 28.5691L29.87 19.9557L39.7898 10.0359ZM4.51704 9.3052L8.70194 5.09815L11.514 7.91023L8.90123 10.5452L12.0233 13.6672L14.6582 11.0323L17.3153 13.6894L13.1083 17.8964L4.51704 9.3052ZM29.3829 25.7791L26.748 28.4141L29.87 31.5361L32.505 28.9012L35.3171 31.7133L31.11 35.9203L22.4966 27.3069L26.7037 23.0999L29.3829 25.7791ZM7.55054 36.0089H4.42847V32.8868L25.7073 11.608L28.5858 14.4865L28.8293 14.7301L7.55054 36.0089ZM28.8293 8.46379L31.9514 5.34172L35.0735 8.46379L31.9514 11.5859L28.8293 8.46379Z" fill="white"/>
</svg>
