<svg width="40" height="40" viewBox="0 0 40 40" fill="none" xmlns="http://www.w3.org/2000/svg">
<path d="M22.6168 37.3002C22.2334 37.3002 21.8501 37.2335 21.4835 37.1002C20.2335 36.6335 19.4334 35.4669 19.4334 34.1335V23.3835H15.5334C14.2668 23.3835 13.1668 22.6669 12.6501 21.5169C12.1334 20.3669 12.3334 19.0669 13.1668 18.1169L25.7834 3.78352C26.6668 2.78352 28.0334 2.43352 29.2834 2.91685C30.5334 3.38352 31.3334 4.55019 31.3334 5.88352V16.6335H35.2335C36.5001 16.6335 37.6001 17.3502 38.1168 18.5002C38.6334 19.6502 38.4334 20.9502 37.6001 21.9002L24.9834 36.2335C24.3668 36.9335 23.5001 37.3002 22.6168 37.3002ZM28.1334 5.20019C27.9834 5.20019 27.8001 5.25019 27.6501 5.43352L15.0334 19.7835C14.7667 20.0835 14.8668 20.3835 14.9168 20.5002C14.9668 20.6169 15.1334 20.9002 15.5334 20.9002H20.6834C21.3668 20.9002 21.9334 21.4669 21.9334 22.1502V34.1502C21.9334 34.5669 22.2335 34.7335 22.3668 34.7835C22.5001 34.8335 22.8334 34.9169 23.1001 34.6002L35.7168 20.2502C35.9834 19.9502 35.8834 19.6502 35.8334 19.5335C35.7834 19.4169 35.6168 19.1335 35.2168 19.1335H30.0668C29.3834 19.1335 28.8168 18.5669 28.8168 17.8835V5.88352C28.8168 5.46685 28.5168 5.30019 28.3834 5.25019C28.3334 5.21685 28.2334 5.20019 28.1334 5.20019Z" fill="#3A78F2"/>
<path d="M14.1668 7.91675H2.50016C1.81683 7.91675 1.25016 7.35008 1.25016 6.66675C1.25016 5.98342 1.81683 5.41675 2.50016 5.41675H14.1668C14.8502 5.41675 15.4168 5.98342 15.4168 6.66675C15.4168 7.35008 14.8502 7.91675 14.1668 7.91675Z" fill="#3A78F2"/>
<path d="M12.5002 34.5833H2.50016C1.81683 34.5833 1.25016 34.0166 1.25016 33.3333C1.25016 32.6499 1.81683 32.0833 2.50016 32.0833H12.5002C13.1835 32.0833 13.7502 32.6499 13.7502 33.3333C13.7502 34.0166 13.1835 34.5833 12.5002 34.5833Z" fill="#3A78F2"/>
<path d="M7.50016 21.25H2.50016C1.81683 21.25 1.25016 20.6833 1.25016 20C1.25016 19.3167 1.81683 18.75 2.50016 18.75H7.50016C8.18349 18.75 8.75016 19.3167 8.75016 20C8.75016 20.6833 8.18349 21.25 7.50016 21.25Z" fill="#3A78F2"/>
</svg>
