<svg width="35" height="34" viewBox="0 0 35 34" fill="none" xmlns="http://www.w3.org/2000/svg">
<path d="M29.725 21.8408C30.8064 19.2713 31.0554 16.4274 30.4368 13.7091C29.8182 10.9908 28.3633 8.53474 26.2765 6.68617C24.1898 4.8376 21.5761 3.68953 18.8031 3.40335C16.03 3.11718 13.237 3.7073 10.8167 5.09075L9.16333 2.19575C11.6927 0.75011 14.557 -0.00697036 17.4703 4.83608e-05C20.3837 0.00706708 23.2443 0.777939 25.7667 2.23575C33.25 6.55575 36.1167 15.8058 32.6283 23.5191L34.865 24.8091L27.9233 28.4991L27.6483 20.6424L29.725 21.8408ZM5.14167 11.4974C4.06024 14.0669 3.81131 16.9107 4.42986 19.629C5.04842 22.3473 6.50336 24.8034 8.59012 26.652C10.6769 28.5006 13.2905 29.6486 16.0636 29.9348C18.8367 30.221 21.6297 29.6309 24.05 28.2474L25.7033 31.1424C23.1739 32.5881 20.3097 33.3451 17.3963 33.3381C14.483 33.3311 11.6224 32.5602 9.1 31.1024C1.61667 26.7824 -1.25 17.5324 2.23833 9.81909L0 8.53075L6.94167 4.84075L7.21667 12.6974L5.14 11.4991L5.14167 11.4974ZM19.7917 21.3824L15.0733 16.6691L10.36 21.3824L8.00333 19.0258L15.075 11.9558L19.79 16.6691L24.505 11.9558L26.8617 14.3124L19.79 21.3824H19.7917Z" fill="white"/>
</svg>
