<svg width="98" height="70" viewBox="0 0 98 70" fill="none" xmlns="http://www.w3.org/2000/svg">
<path fill-rule="evenodd" clip-rule="evenodd" d="M61.1441 23.9183L61.1339 0L54.2953 3.35807C52.1405 4.41633 51.1123 6.08819 51.1123 8.47643L51.1807 32.4673L57.9249 29.1092C60.1059 28.0187 61.1441 26.3588 61.1441 23.9183ZM36.1433 28.8638L36.1191 40L42.9779 36.5716C45.0463 35.5375 46.0945 33.9379 46.0765 31.6202L45.9979 21.2605L38.1694 25.3428C36.8656 26.0229 36.1433 27.3851 36.1433 28.8638Z" fill="#3A78F2"/>
<path d="M0.736984 51.68V48.82H13.145V51.68H8.52498V64H5.35698V51.68H0.736984ZM14.2068 60.436V55.948C14.2068 53.572 15.3948 52.384 17.7708 52.384H20.6308C23.0068 52.384 24.1948 53.572 24.1948 55.948V59.314H17.2428V60.656C17.2428 61.1253 17.4775 61.36 17.9468 61.36H23.7548V63.01L22.4348 64H17.7708C15.3948 64 14.2068 62.812 14.2068 60.436ZM17.2428 56.982H21.1588V55.728C21.1588 55.2587 20.9242 55.024 20.4548 55.024H17.9468C17.4775 55.024 17.2428 55.2587 17.2428 55.728V56.982ZM27.0115 60.436V55.948C27.0115 53.572 28.1995 52.384 30.5755 52.384H34.6675L35.9875 53.374V55.024H30.7515C30.2822 55.024 30.0475 55.2587 30.0475 55.728V60.656C30.0475 61.1253 30.2822 61.36 30.7515 61.36H35.9875V63.01L34.6675 64H30.5755C28.1995 64 27.0115 62.812 27.0115 60.436ZM38.5742 64V47.72H41.6102V52.384H44.9982C47.3742 52.384 48.5622 53.572 48.5622 55.948V64H45.5262V55.728C45.5262 55.2587 45.2916 55.024 44.8222 55.024H41.6102V64H38.5742ZM49.6999 51.68V48.82H62.1079V51.68H57.4879V64H54.3199V51.68H49.6999ZM66.0789 64C63.7029 64 62.5149 62.834 62.5149 60.502C62.5149 58.17 63.7029 57.004 66.0789 57.004H69.1149V55.728C69.1149 55.2587 68.8802 55.024 68.4109 55.024H63.7469V53.374L65.0669 52.384H68.5869C70.9629 52.384 72.1509 53.572 72.1509 55.948V64H66.0789ZM65.5509 60.656C65.5509 61.1253 65.7855 61.36 66.2549 61.36H69.1149V59.336H66.2549C65.7855 59.336 65.5509 59.5707 65.5509 60.04V60.656ZM75.0506 60.436V55.948C75.0506 53.572 76.2386 52.384 78.6146 52.384H82.7066L84.0266 53.374V55.024H78.7906C78.3212 55.024 78.0866 55.2587 78.0866 55.728V60.656C78.0866 61.1253 78.3212 61.36 78.7906 61.36H84.0266V63.01L82.7066 64H78.6146C76.2386 64 75.0506 62.812 75.0506 60.436ZM86.6133 64V47.72H89.6493V56.762L93.6753 52.384H96.6673L96.9093 52.89L92.8833 57.224L97.2173 63.494L96.9753 64H94.0053L90.8813 59.402L89.6493 60.744V64H86.6133Z" fill="black"/>
</svg>
