<svg width="40" height="40" viewBox="0 0 40 40" fill="none" xmlns="http://www.w3.org/2000/svg">
<path d="M29.9999 13.1834C29.9499 13.1834 29.9165 13.1834 29.8665 13.1834H29.7832C26.6332 13.0834 24.2832 10.6501 24.2832 7.6501C24.2832 4.58343 26.7832 2.1001 29.8332 2.1001C32.8832 2.1001 35.3832 4.6001 35.3832 7.6501C35.3665 10.6668 33.0165 13.1001 30.0165 13.2001C30.0165 13.1834 30.0165 13.1834 29.9999 13.1834ZM29.8332 4.58344C28.1499 4.58344 26.7832 5.95011 26.7832 7.63344C26.7832 9.28344 28.0665 10.6168 29.7165 10.6834C29.7332 10.6668 29.8665 10.6668 30.0165 10.6834C31.6332 10.6001 32.8832 9.26678 32.8999 7.63344C32.8999 5.95011 31.5332 4.58344 29.8332 4.58344Z" fill="#3A78F2"/>
<path d="M30.0168 25.4668C29.3668 25.4668 28.7168 25.4167 28.0668 25.3001C27.3835 25.1834 26.9335 24.5334 27.0501 23.8501C27.1668 23.1668 27.8168 22.7167 28.5001 22.8334C30.5501 23.1834 32.7168 22.8001 34.1668 21.8334C34.9501 21.3168 35.3668 20.6667 35.3668 20.0167C35.3668 19.3667 34.9335 18.7334 34.1668 18.2167C32.7168 17.2501 30.5168 16.8667 28.4501 17.2334C27.7668 17.3667 27.1168 16.9001 27.0001 16.2167C26.8835 15.5334 27.3335 14.8834 28.0168 14.7668C30.7335 14.2834 33.5501 14.8001 35.5501 16.1334C37.0168 17.1167 37.8668 18.5167 37.8668 20.0167C37.8668 21.5001 37.0335 22.9168 35.5501 23.9168C34.0335 24.9168 32.0668 25.4668 30.0168 25.4668Z" fill="#3A78F2"/>
<path d="M9.95011 13.1833C9.93345 13.1833 9.91678 13.1833 9.91678 13.1833C6.91678 13.0833 4.56678 10.6499 4.55011 7.64991C4.55011 4.58325 7.05011 2.08325 10.1001 2.08325C13.1501 2.08325 15.6501 4.58326 15.6501 7.63326C15.6501 10.6499 13.3001 13.0833 10.3001 13.1833L10.1168 13.2154L10.0668 13.1833C10.0334 13.1833 9.98345 13.1833 9.95011 13.1833ZM10.1639 10.6999C10.2639 10.6999 10.3001 10.6832 10.4001 10.6999C11.8834 10.6332 13.1834 9.29991 13.1834 7.64991C13.1834 5.96658 11.8168 4.59991 10.1334 4.59991C8.45011 4.59991 7.08344 5.96658 7.08344 7.64991C7.08344 9.28325 8.35011 10.5999 9.96678 10.6999C9.98344 10.6832 10.0972 10.6999 10.1639 10.6999Z" fill="#3A78F2"/>
<path d="M9.93348 25.4668C7.88348 25.4668 5.91681 24.9168 4.40015 23.9168C2.93348 22.9334 2.08348 21.5167 2.08348 20.0167C2.08348 18.5334 2.93348 17.1167 4.40015 16.1334C6.40015 14.8001 9.21681 14.2834 11.9335 14.7668C12.6168 14.8834 13.0668 15.5334 12.9501 16.2167C12.8335 16.9001 12.1835 17.3667 11.5001 17.2334C9.43348 16.8667 7.25015 17.2501 5.78348 18.2167C5.00015 18.7334 4.58348 19.3667 4.58348 20.0167C4.58348 20.6667 5.01682 21.3168 5.78348 21.8334C7.23348 22.8001 9.40015 23.1834 11.4501 22.8334C12.1335 22.7167 12.7835 23.1834 12.9001 23.8501C13.0168 24.5334 12.5668 25.1834 11.8835 25.3001C11.2335 25.4167 10.5835 25.4668 9.93348 25.4668Z" fill="#3A78F2"/>
<path d="M19.9999 25.6334C19.9499 25.6334 19.9165 25.6334 19.8665 25.6334H19.7832C16.6332 25.5334 14.2832 23.1001 14.2832 20.1001C14.2832 17.0334 16.7832 14.55 19.8332 14.55C22.8832 14.55 25.3832 17.0501 25.3832 20.1001C25.3665 23.1167 23.0165 25.5501 20.0165 25.6501C20.0165 25.6334 20.0165 25.6334 19.9999 25.6334ZM19.8332 17.0334C18.1499 17.0334 16.7832 18.4001 16.7832 20.0834C16.7832 21.7334 18.0665 23.0667 19.7165 23.1334C19.7332 23.1167 19.8665 23.1167 20.0165 23.1334C21.6332 23.0501 22.8832 21.7167 22.8999 20.0834C22.8999 18.4167 21.5332 17.0334 19.8332 17.0334Z" fill="#3A78F2"/>
<path d="M19.9998 37.9332C17.9998 37.9332 15.9998 37.4166 14.4498 36.3666C12.9831 35.3832 12.1331 33.9832 12.1331 32.4832C12.1331 30.9999 12.9664 29.5665 14.4498 28.5832C17.5664 26.5165 22.4498 26.5165 25.5498 28.5832C27.0165 29.5665 27.8665 30.9665 27.8665 32.4665C27.8665 33.9499 27.0331 35.3832 25.5498 36.3666C23.9998 37.3999 21.9998 37.9332 19.9998 37.9332ZM15.8331 30.6832C15.0498 31.1999 14.6331 31.8499 14.6331 32.4999C14.6331 33.1499 15.0665 33.7832 15.8331 34.2999C18.0831 35.8166 21.8998 35.8166 24.1498 34.2999C24.9331 33.7832 25.3498 33.1332 25.3498 32.4832C25.3498 31.8332 24.9165 31.1999 24.1498 30.6832C21.9165 29.1666 18.0998 29.1832 15.8331 30.6832Z" fill="#3A78F2"/>
</svg>
