<svg width="48" height="48" viewBox="0 0 48 48" fill="none" xmlns="http://www.w3.org/2000/svg">
<path d="M39.9999 19.2C39.9999 11.2 36.7999 8 28.7999 8H19.1999C11.1999 8 7.99994 11.2 7.99994 19.2V28.8C7.99994 36.8 11.1999 40 19.1999 40" stroke="white" stroke-width="3" stroke-linecap="round" stroke-linejoin="round"/>
<path d="M32.6999 16C31.5999 14.6 29.7599 14 26.9999 14H20.9999C15.9999 14 13.9999 16 13.9999 21V27C13.9999 29.76 14.5999 31.6 15.9799 32.7" stroke="white" stroke-width="3" stroke-linecap="round" stroke-linejoin="round"/>
<path d="M16.02 8V4" stroke="white" stroke-width="3" stroke-linecap="round" stroke-linejoin="round"/>
<path d="M23.9999 8V4" stroke="white" stroke-width="3" stroke-linecap="round" stroke-linejoin="round"/>
<path d="M31.9999 8V4" stroke="white" stroke-width="3" stroke-linecap="round" stroke-linejoin="round"/>
<path d="M39.9999 16H43.9999" stroke="white" stroke-width="3" stroke-linecap="round" stroke-linejoin="round"/>
<path d="M16.02 40V44" stroke="white" stroke-width="3" stroke-linecap="round" stroke-linejoin="round"/>
<path d="M3.99994 16H7.99994" stroke="white" stroke-width="3" stroke-linecap="round" stroke-linejoin="round"/>
<path d="M3.99994 24H7.99994" stroke="white" stroke-width="3" stroke-linecap="round" stroke-linejoin="round"/>
<path d="M3.99994 32H7.99994" stroke="white" stroke-width="3" stroke-linecap="round" stroke-linejoin="round"/>
<path d="M33.4199 37.1801C35.1762 37.1801 36.5999 35.7563 36.5999 34.0001C36.5999 32.2438 35.1762 30.8201 33.4199 30.8201C31.6637 30.8201 30.2399 32.2438 30.2399 34.0001C30.2399 35.7563 31.6637 37.1801 33.4199 37.1801Z" stroke="white" stroke-width="3" stroke-miterlimit="10" stroke-linecap="round" stroke-linejoin="round"/>
<path d="M22.82 34.9201V33.0601C22.82 31.9601 23.72 31.0601 24.82 31.0601C26.74 31.0601 27.52 29.7001 26.56 28.0401C26 27.0801 26.34 25.8401 27.3 25.3001L29.12 24.2401C29.96 23.7401 31.04 24.0401 31.54 24.8801L31.66 25.0801C32.62 26.7401 34.18 26.7401 35.14 25.0801L35.26 24.8801C35.76 24.0401 36.84 23.7601 37.68 24.2401L39.5 25.3001C40.46 25.8601 40.8 27.0801 40.24 28.0401C39.28 29.7001 40.06 31.0601 41.98 31.0601C43.08 31.0601 43.98 31.9601 43.98 33.0601V34.9201C43.98 36.0201 43.08 36.9201 41.98 36.9201C40.06 36.9201 39.28 38.2801 40.24 39.9401C40.8 40.9001 40.46 42.1401 39.5 42.6801L37.68 43.7401C36.84 44.2401 35.76 43.9401 35.26 43.1001L35.14 42.9001C34.18 41.2401 32.62 41.2401 31.66 42.9001L31.54 43.1001C31.04 43.9401 29.96 44.2201 29.12 43.7401L27.3 42.6801C26.34 42.1201 26 40.9001 26.56 39.9401C27.52 38.2801 26.74 36.9201 24.82 36.9201C23.72 36.9401 22.82 36.0401 22.82 34.9201Z" stroke="white" stroke-width="3" stroke-miterlimit="10" stroke-linecap="round" stroke-linejoin="round"/>
</svg>
