<svg width="40" height="40" viewBox="0 0 40 40" fill="none" xmlns="http://www.w3.org/2000/svg">
<g clip-path="url(#clip0_1_3500)">
<path fill-rule="evenodd" clip-rule="evenodd" d="M3.75003 4.375C3.75003 3.87772 3.55249 3.40081 3.20086 3.04917C2.84923 2.69754 2.37231 2.5 1.87503 2.5C1.37775 2.5 0.900836 2.69754 0.549205 3.04917C0.197575 3.40081 3.05176e-05 3.87772 3.05176e-05 4.375L3.05176e-05 35.625C3.05176e-05 36.66 0.840031 37.5 1.87503 37.5H38.125C38.6223 37.5 39.0992 37.3025 39.4509 36.9508C39.8025 36.5992 40 36.1223 40 35.625C40 35.1277 39.8025 34.6508 39.4509 34.2992C39.0992 33.9475 38.6223 33.75 38.125 33.75H3.75003V4.375ZM39.45 10.7C39.7812 10.3446 39.9615 9.87445 39.953 9.38869C39.9444 8.90294 39.7476 8.43948 39.4041 8.09595C39.0606 7.75241 38.5971 7.55563 38.1113 7.54706C37.6256 7.53849 37.1555 7.7188 36.8 8.05L25 19.85L18.825 13.675C18.4735 13.3239 17.9969 13.1266 17.5 13.1266C17.0032 13.1266 16.5266 13.3239 16.175 13.675L8.05003 21.8C7.71883 22.1554 7.53852 22.6256 7.54709 23.1113C7.55566 23.5971 7.75244 24.0605 8.09598 24.4041C8.43951 24.7476 8.90297 24.9444 9.38872 24.9529C9.87448 24.9615 10.3446 24.7812 10.7 24.45L17.5 17.65L23.675 23.825C24.0266 24.1761 24.5032 24.3734 25 24.3734C25.4969 24.3734 25.9735 24.1761 26.325 23.825L39.45 10.7Z" fill="white"/>
</g>
<defs>
<clipPath id="clip0_1_3500">
<rect width="40" height="40" fill="white"/>
</clipPath>
</defs>
</svg>
